<?xml version="1.0" encoding="iso-8859-1"?>
<!-- Generator: Adobe Illustrator 16.0.4, SVG Export Plug-In . SVG Version: 6.00 Build 0)  -->
<!DOCTYPE svg PUBLIC "-//W3C//DTD SVG 1.1//EN" "http://www.w3.org/Graphics/SVG/1.1/DTD/svg11.dtd">
<svg version="1.1" id="Capa_1" xmlns="http://www.w3.org/2000/svg" xmlns:xlink="http://www.w3.org/1999/xlink" x="0px" y="0px"
	 width="43.742px" height="40.354px" viewBox="0 0 43.742 40.354" style="enable-background:new 0 0 43.742 40.354;"
	 xml:space="preserve">
<g>
	<path style="fill:#262626;" d="M34.848,22.566c-0.053,0-0.103,0.006-0.156,0.007l-0.631-4.992
		c-0.034-0.274-0.154-0.503-0.304-0.699l0.025-0.051l-0.104-0.052c-0.192-0.209-0.436-0.331-0.705-0.356l-9.306-4.685l1.061-1.472
		l-4.432-3.189l-9.446,13.128l1.293,0.93H10.16v1.53c-0.416-0.059-0.835-0.099-1.266-0.099C3.982,22.566,0,26.545,0,31.46
		c0,4.911,3.982,8.895,8.895,8.895c4.911,0,8.894-3.983,8.894-8.895c0-0.521-0.054-1.028-0.14-1.524l3.377-1.397v6.655h4.058v-8.335
		l3.112-1.287c-1.393,1.569-2.24,3.627-2.24,5.889c0,4.911,3.98,8.895,8.893,8.895c4.913,0,8.895-3.983,8.895-8.895
		C43.742,26.545,39.761,22.566,34.848,22.566z M21.682,14.5l10.255,5.166H17.965L21.682,14.5z M31.402,21.864l-6.894,2.854
		l-3.697-2.854H31.402z M13.393,22.936l-0.378,0.645c-0.505-0.263-1.035-0.48-1.589-0.645H13.393z M16.171,31.46
		c0,4.014-3.263,7.276-7.276,7.276c-4.013,0-7.277-3.263-7.277-7.276c0-4.015,3.265-7.277,7.277-7.277
		c1.186,0,2.293,0.313,3.281,0.818l-3.935,6.688c-0.015,0.026-0.015,0.057-0.03,0.083c-0.028,0.065-0.049,0.132-0.066,0.202
		c-0.019,0.07-0.036,0.139-0.038,0.212c-0.008,0.064,0.002,0.127,0.012,0.193c0.008,0.077,0.019,0.151,0.045,0.225
		c0.01,0.028,0.008,0.055,0.02,0.081c0.016,0.038,0.048,0.062,0.066,0.098c0.036,0.065,0.078,0.127,0.132,0.185
		c0.046,0.056,0.1,0.101,0.158,0.145c0.032,0.024,0.056,0.06,0.092,0.082c0.026,0.016,0.056,0.016,0.086,0.028
		c0.064,0.033,0.133,0.054,0.204,0.071c0.07,0.019,0.135,0.034,0.206,0.039c0.068,0.004,0.129-0.005,0.198-0.013
		c0.076-0.009,0.15-0.022,0.223-0.047c0.026-0.01,0.054-0.006,0.08-0.019l6.455-2.671C16.117,30.875,16.171,31.16,16.171,31.46z
		 M15.501,28.447L11.8,29.976l2.184-3.705C14.614,26.891,15.126,27.631,15.501,28.447z M14.822,24.843l0.719-1.222l4.056,3.13
		l-2.591,1.072C16.493,26.679,15.745,25.669,14.822,24.843z M34.848,38.736c-4.012,0-7.276-3.263-7.276-7.276
		c0-3.237,2.136-5.954,5.064-6.896l0.87,6.885c0.093,0.731,0.675,1.26,1.301,1.18c0.629-0.078,1.06-0.735,0.968-1.466l-0.881-6.976
		c3.993,0.026,7.231,3.274,7.231,7.273C42.125,35.474,38.862,38.736,34.848,38.736z"/>
	<circle style="fill:#262626;" cx="24.729" cy="4.285" r="4.285"/>
	<path style="fill:#262626;" d="M25.666,35.503h-4.01c-0.667,0-1.215,0.542-1.215,1.212c0,0.669,0.548,1.214,1.215,1.214h4.01
		c0.672,0,1.215-0.545,1.215-1.214C26.881,36.045,26.338,35.503,25.666,35.503z"/>
</g>
<g>
</g>
<g>
</g>
<g>
</g>
<g>
</g>
<g>
</g>
<g>
</g>
<g>
</g>
<g>
</g>
<g>
</g>
<g>
</g>
<g>
</g>
<g>
</g>
<g>
</g>
<g>
</g>
<g>
</g>
</svg>
