<?xml version="1.0" encoding="iso-8859-1"?>
<!-- Generator: Adobe Illustrator 17.0.2, SVG Export Plug-In . SVG Version: 6.00 Build 0)  -->
<!DOCTYPE svg PUBLIC "-//W3C//DTD SVG 1.1//EN" "http://www.w3.org/Graphics/SVG/1.1/DTD/svg11.dtd">
<svg version="1.1" id="Capa_1" xmlns="http://www.w3.org/2000/svg" xmlns:xlink="http://www.w3.org/1999/xlink" x="0px" y="0px"
	 width="64px" height="64px" viewBox="0 0 64 64" style="enable-background:new 0 0 64 64;" xml:space="preserve">
<g>
	<path d="M6.646,51.049c1.676-1.339,4.062-4.815,5.138-6.452c0.317-0.482,0.617-1.341,0.679-1.914l0.283-2.579l11.467-13.714v5.26
		l3.948-2.635c1.767-1.063,4.305-1.017,5.924-0.047l4.031,2.688v-5.085l11.315,13.533l0.283,2.579
		c0.062,0.573,0.361,1.432,0.679,1.914c1.076,1.636,3.462,5.113,5.138,6.452c0.45,0.36,1.363,0.437,1.901,0.229
		c0.877-0.341,2.109-1.058,2.733-2.502c0.227-0.529-0.005-1.351-0.382-1.786l-4.864-5.635c-0.377-0.437-1.119-0.954-1.658-1.156
		l-2.497-0.939L38.116,24.133v-1.37c0-2.478-2.009-4.487-4.487-4.487H28.7c-2.479,0-4.487,2.009-4.487,4.487v1.189l-12.8,15.307
		l-2.497,0.939c-0.539,0.202-1.281,0.72-1.658,1.156l-4.864,5.635c-0.377,0.436-0.608,1.257-0.381,1.786
		c0.623,1.443,1.855,2.161,2.733,2.502C5.283,51.485,6.196,51.409,6.646,51.049z"/>
	<path d="M33.165,30.509c-1.107-0.663-2.9-0.663-4.007,0l-13.67,9.119c-1.106,0.663-1.817,2.233-1.4,3.453
		c1.362,3.967,5.511,10.86,17.073,10.977c11.602,0.117,15.738-6.946,17.085-10.973c0.41-1.223-0.307-2.794-1.413-3.456
		L33.165,30.509z"/>
	<circle cx="31.164" cy="11.103" r="6.275"/>
</g>
</svg>
