<?xml version="1.0" encoding="utf-8"?>
<!-- Generator: Adobe Illustrator 17.0.0, SVG Export Plug-In . SVG Version: 6.00 Build 0)  -->
<!DOCTYPE svg PUBLIC "-//W3C//DTD SVG 1.1//EN" "http://www.w3.org/Graphics/SVG/1.1/DTD/svg11.dtd">
<svg version="1.1" id="Capa_1" xmlns="http://www.w3.org/2000/svg" xmlns:xlink="http://www.w3.org/1999/xlink" x="0px" y="0px"
	 width="52px" height="52px" viewBox="0 0 52 52" enable-background="new 0 0 52 52" xml:space="preserve">
<g>
	<path d="M33.251,28.309c0.576,0.274,1.153,0.546,1.733,0.82c0.958,0.452,1.963,0.468,2.242,0.035s0.444-0.849,0.369-0.933
		c-0.051-0.057-0.095-0.105-0.145-0.143c-2.241-1.733-4.477-3.475-6.74-5.179c-0.195-0.147-0.616-0.147-0.865-0.049
		c-1.788,0.72-3.558,1.481-5.335,2.227c-0.131,0.054-0.263,0.106-0.397,0.158c-0.221,0.085-0.054-0.672,0.372-1.691
		c0.474-1.134,0.942-2.247,1.423-3.354c0.101-0.231,0.332-0.438,0.553-0.58c1.115-0.713,2.264-1.375,3.361-2.113
		c0.311-0.208,0.604-0.579,0.708-0.933c0.497-1.693,0.943-3.244,1.462-4.93c0.131-0.427-0.482-0.951-0.678-0.592
		c-0.195,0.358-2.321,4.536-2.321,4.536c-0.469,0.941-2.767,0.856-3.431,1.129c-0.225,0.092-0.589,0.071-0.795-0.054
		c-0.832-0.508-1.612-1.099-2.439-1.613c-0.645-0.403-1.37-0.574-2.021-0.058c-1.964,1.56-3.901,3.153-5.844,4.74
		c-0.409,0.335-0.452,0.722-0.121,1.156c0.536,0.702,0.998,1.469,1.593,2.112c1.574,1.699,2.454,3.609,2.076,5.974
		c-0.014,0.09,0.019,0.187,0.011,0.277c-0.034,0.361,0.031,0.668,0.172,0.943c0.245,0.478,1.432,1.115,2.437,1.573
		c1.744,0.795,4.281,1.937,5.451,2.397c1.609,0.632,3.014,1.49,4.23,2.711c0.802,0.806,1.679,1.537,2.526,2.297
		c0.068,0.061,0.142,0.115,0.223,0.172c0.128,0.09,0.364-0.064,0.528-0.342c0.102-0.174,0.204-0.337,0.325-0.485
		c0.391-0.477,0.327-0.857-0.029-1.347c-0.971-1.331-1.865-2.72-2.825-4.06c-0.276-0.386-0.632-0.739-1.017-1.019
		c-0.738-0.536-1.487-1.058-2.256-1.59c-0.908-0.629-0.877-1.601,0.07-2.17c0.752-0.452,1.491-0.892,2.236-1.321
		c0.136-0.074,0.404-0.002,0.576,0.076C31.536,27.48,32.391,27.9,33.251,28.309z M17.601,21.925c-0.467-0.622-0.321-1.4,0.326-1.739
		c0.646-0.339,1.024,0.165,0.845,1.125S18.067,22.546,17.601,21.925z"/>
	<circle cx="25.53" cy="10.854" r="4.174"/>
	<path d="M18.988,31.775c-0.573-0.076-1.086,0.225-1.146,0.674L16.21,44.64c-0.061,0.449,0.356,0.875,0.929,0.951
		c0.572,0.076,1.084-0.226,1.145-0.675l1.632-12.189C19.976,32.277,19.562,31.852,18.988,31.775z"/>
	<path d="M32.317,10.858c0.391,0.205,0.77,0.189,0.846-0.033l2.07-6.06c0.076-0.223-0.179-0.57-0.571-0.773
		c-0.392-0.204-0.771-0.19-0.847,0.033l-2.07,6.06C31.668,10.308,31.925,10.654,32.317,10.858z"/>
</g>
</svg>
