<?xml version="1.0" encoding="iso-8859-1"?>
<!-- Generator: Adobe Illustrator 17.1.0, SVG Export Plug-In . SVG Version: 6.00 Build 0)  -->
<!DOCTYPE svg PUBLIC "-//W3C//DTD SVG 1.1//EN" "http://www.w3.org/Graphics/SVG/1.1/DTD/svg11.dtd">
<svg version="1.1" id="Capa_1" xmlns="http://www.w3.org/2000/svg" xmlns:xlink="http://www.w3.org/1999/xlink" x="0px" y="0px"
	 viewBox="0 0 64 64" style="enable-background:new 0 0 64 64;" xml:space="preserve">
<g>
	<path d="M37.113,10.04c-2.074,0.405-3.436,2.411-3.031,4.487c0.405,2.075,2.424,3.435,4.499,3.028
		c2.075-0.404,3.424-2.421,3.018-4.496C41.194,10.984,39.19,9.635,37.113,10.04z"/>
	<path d="M14.128,14.299c-1.964,0.383-3.252,2.282-2.869,4.247c0.384,1.964,2.294,3.25,4.257,2.866
		c1.965-0.383,3.241-2.292,2.857-4.255C17.989,15.192,16.092,13.915,14.128,14.299z"/>
	<path d="M57.959,42.761c-0.607-1.139-1.586-1.137-2.188,0.006l-0.321,0.611l-4.314-28.035l-0.022-0.066
		c-0.156-0.448-0.655-0.699-1.115-0.538c-0.414,0.144-0.62,0.578-0.566,1.014l1.663,10.788L45.66,26.25l-2.787-5.986
		c-0.469-1.008-1.748-1.779-2.857-1.724l-3.523,0.318c-1.11,0.056-2.039,1-2.074,2.11l-1.272,29.892
		c0,0.021,0.006,0.041,0.007,0.062c-0.297,0.043-0.582,0.098-0.83,0.175l-0.032,0.01l-4.893-31.792l-0.022-0.062
		c-0.147-0.424-0.619-0.661-1.055-0.509c-0.392,0.136-0.587,0.547-0.536,0.959l1.573,10.209l-5.143-0.273l-2.638-5.665
		c-0.443-0.954-1.653-1.684-2.704-1.631l-3.335,0.301c-1.05,0.053-1.93,0.947-1.962,1.998l-1.204,28.289
		c0.003,0.178,0.025,0.348,0.058,0.515c0.029,0.149,0.076,0.289,0.128,0.426l-1.162-0.426c-1.211-0.444-2.678,0.122-3.276,1.266
		l-0.754,1.441c-0.599,1.145-0.037,2.07,1.253,2.07h50.824c1.291,0,2.543-1.025,2.795-2.291l0.837-4.18
		c0.253-1.266-0.034-3.215-0.642-4.353L57.959,42.761z M19.129,51.889l-2.51,2.062c-0.492,0.404-1.177,0.68-1.891,0.806
		c0.413-0.414,0.682-0.959,0.737-1.551l0.621-14.715l6.516,12.553C21.438,50.852,19.988,51.184,19.129,51.889z M27.148,52.203
		c0.483-0.569,0.719-1.337,0.564-2.131c-0.037-0.19-0.095-0.363-0.163-0.54l-8.533-16.771l0.068-2.164l0.689,1.558
		c0.541,0.995,1.529,0.913,1.529,0.913l6.078,0.339c0.122-0.001,0.236-0.013,0.352-0.035c0.053-0.01,0.101-0.031,0.151-0.045
		l2.817,18.276l-1.111,0.345C28.918,52.157,28.022,52.238,27.148,52.203z M38.514,51.835l-0.135-0.049
		c0.072-0.205,0.128-0.416,0.148-0.636l0.656-15.549l6.443,12.416l-3.211,3.012C41.475,51.911,39.727,52.272,38.514,51.835z
		 M50.776,46.249l-8.497-16.7l0.071-2.287l0.729,1.646c0.571,1.051,1.616,0.965,1.616,0.965l6.422,0.357
		c0.129-0.001,0.25-0.013,0.372-0.036c0.056-0.011,0.107-0.033,0.161-0.048l2.344,15.208c-0.706,0.54-1.595,0.895-2.393,0.895
		H50.776z"/>
</g>
</svg>
