<?xml version="1.0" encoding="iso-8859-1"?>
<!-- Generator: Adobe Illustrator 16.0.0, SVG Export Plug-In . SVG Version: 6.00 Build 0)  -->
<!DOCTYPE svg PUBLIC "-//W3C//DTD SVG 1.1//EN" "http://www.w3.org/Graphics/SVG/1.1/DTD/svg11.dtd">
<svg version="1.1" id="Layer_1" xmlns="http://www.w3.org/2000/svg" xmlns:xlink="http://www.w3.org/1999/xlink" x="0px" y="0px"
	 width="18.308px" height="29.254px" viewBox="0 0 18.308 29.254" style="enable-background:new 0 0 18.308 29.254;"
	 xml:space="preserve">
<g>
	<path d="M8.221,7.487c2.065,0,3.743-1.676,3.743-3.743C11.964,1.676,10.286,0,8.221,0C6.156,0,4.479,1.676,4.479,3.744
		C4.479,5.811,6.156,7.487,8.221,7.487z"/>
	<polygon points="11.1,16.042 10.683,16.918 10.683,16.918 8.559,21.377 8.559,21.377 8.28,21.961 4.501,21.961 1.876,11.463 
		0,11.932 2.99,23.895 4.503,23.895 2.563,28.17 3.735,28.703 5.919,23.895 9.12,23.895 11.219,28.695 12.4,28.179 10.528,23.895 
		11.888,23.895 11.888,21.961 9.524,21.961 9.803,21.377 9.803,21.377 10.629,19.641 11.809,17.167 18.308,17.167 18.308,16.042 	
		"/>
	<polygon points="9.695,8.65 5.438,8.65 4.806,21.377 6.957,21.377 7.844,21.377 10.518,15.766 10.683,15.418 10.683,15.341 
		17.24,15.341 17.24,13.375 11.784,13.375 	"/>
	<polygon points="13.871,18.757 11.765,18.757 10.517,21.377 10.683,21.377 13.871,21.377 13.871,29.254 17.24,29.254 17.24,18.757 
		16.971,18.757 	"/>
</g>
<g>
</g>
<g>
</g>
<g>
</g>
<g>
</g>
<g>
</g>
<g>
</g>
<g>
</g>
<g>
</g>
<g>
</g>
<g>
</g>
<g>
</g>
<g>
</g>
<g>
</g>
<g>
</g>
<g>
</g>
</svg>
