<?xml version="1.0" encoding="iso-8859-1"?>
<!-- Generator: Adobe Illustrator 16.0.0, SVG Export Plug-In . SVG Version: 6.00 Build 0)  -->
<!DOCTYPE svg PUBLIC "-//W3C//DTD SVG 1.1//EN" "http://www.w3.org/Graphics/SVG/1.1/DTD/svg11.dtd">
<svg version="1.1" id="Layer_1" xmlns="http://www.w3.org/2000/svg" xmlns:xlink="http://www.w3.org/1999/xlink" x="0px" y="0px"
	 width="29.175px" height="20.312px" viewBox="0 0 29.175 20.312" style="enable-background:new 0 0 29.175 20.312;"
	 xml:space="preserve">
<g>
	<path d="M5.186,11.387c1.854-0.889,3.058-1.365,4.378-0.045c1.97,1.971,3.979,0.929,5.593,0.091
		c1.789-0.927,2.953-1.427,4.289-0.091c0.945,0.945,1.87,1.27,2.74,1.27c1.13,0,2.164-0.55,3.02-1.007
		c1.423-0.758,2.207-1.114,3.057-0.263l0.912-0.912c-1.565-1.565-3.235-0.677-4.576,0.038c-1.7,0.905-2.813,1.389-4.24-0.038
		c-2.073-2.072-4.137-1.002-5.795-0.142c-1.78,0.922-2.845,1.382-4.087,0.142C8.442,8.396,6.329,9.41,4.629,10.224
		c-1.695,0.812-2.703,1.22-3.717,0.206L0,11.342C1.71,13.052,3.638,12.128,5.186,11.387z"/>
	<path d="M24.599,14.219c-1.7,0.906-2.813,1.39-4.24-0.037c-2.073-2.072-4.137-1.002-5.795-0.143
		c-1.78,0.923-2.845,1.383-4.087,0.143c-2.034-2.034-4.147-1.021-5.847-0.206c-1.695,0.812-2.703,1.221-3.717,0.206L0,15.095
		c1.71,1.709,3.638,0.786,5.186,0.045c1.854-0.889,3.058-1.367,4.378-0.045c1.97,1.97,3.979,0.927,5.593,0.09
		c1.789-0.926,2.953-1.427,4.289-0.09c0.945,0.944,1.87,1.27,2.74,1.27c1.13,0,2.164-0.551,3.02-1.007
		c1.423-0.758,2.207-1.115,3.057-0.263l0.912-0.912C27.61,12.617,25.94,13.505,24.599,14.219z"/>
	<path d="M24.599,18.167c-1.7,0.905-2.813,1.389-4.24-0.037c-2.073-2.072-4.137-1.001-5.795-0.143
		c-1.78,0.922-2.845,1.384-4.087,0.143c-2.034-2.034-4.147-1.02-5.847-0.207c-1.695,0.812-2.703,1.221-3.717,0.207L0,19.041
		c1.71,1.71,3.638,0.787,5.186,0.045c1.854-0.889,3.058-1.366,4.378-0.045c1.97,1.971,3.979,0.928,5.593,0.091
		c1.789-0.926,2.953-1.428,4.289-0.091c0.945,0.945,1.87,1.271,2.74,1.271c1.13,0,2.164-0.552,3.02-1.007
		c1.423-0.759,2.207-1.115,3.057-0.264l0.912-0.912C27.61,16.564,25.94,17.451,24.599,18.167z"/>
	<circle cx="22.702" cy="3.224" r="3.224"/>
	<path d="M12.32,4.158l3.934,2.29c0,0-4.954,2.286-5.535,2.868c0.942,2.475,3.815-1.255,7.523-0.933
		c2.257,0.161,3.654,1.787,3.654,1.787l-0.269-2.701l-3.063-2.793l-6.609-3.546L7.199,5.481l1.988,1.021L12.32,4.158z"/>
</g>
<g>
</g>
<g>
</g>
<g>
</g>
<g>
</g>
<g>
</g>
<g>
</g>
<g>
</g>
<g>
</g>
<g>
</g>
<g>
</g>
<g>
</g>
<g>
</g>
<g>
</g>
<g>
</g>
<g>
</g>
</svg>
